<svg width="414" height="882" viewBox="0 0 414 882" fill="none" xmlns="http://www.w3.org/2000/svg">
<rect width="414" height="882" fill="#1E1E1E"/>
<rect width="414" height="882" fill="#D9D9D9"/>
<rect width="414" height="143" fill="#092806"/>
<rect y="98" width="414" height="45" fill="#092806"/>
<path d="M34 72.5H73" stroke="white" stroke-width="5"/>
<line x1="34" y1="103.5" x2="73" y2="103.5" stroke="white" stroke-width="5"/>
<line x1="34" y1="88.5" x2="73" y2="88.5" stroke="white" stroke-width="5"/>
<path d="M383.467 110.5L369.817 96.85C368.733 97.7167 367.488 98.4028 366.079 98.9083C364.671 99.4139 363.172 99.6667 361.583 99.6667C357.647 99.6667 354.316 98.3035 351.59 95.5771C348.863 92.8507 347.5 89.5194 347.5 85.5833C347.5 81.6472 348.863 78.316 351.59 75.5896C354.316 72.8632 357.647 71.5 361.583 71.5C365.519 71.5 368.851 72.8632 371.577 75.5896C374.303 78.316 375.667 81.6472 375.667 85.5833C375.667 87.1722 375.414 88.6708 374.908 90.0792C374.403 91.4875 373.717 92.7333 372.85 93.8167L386.5 107.467L383.467 110.5ZM361.583 95.3333C364.292 95.3333 366.594 94.3854 368.49 92.4896C370.385 90.5938 371.333 88.2917 371.333 85.5833C371.333 82.875 370.385 80.5729 368.49 78.6771C366.594 76.7813 364.292 75.8333 361.583 75.8333C358.875 75.8333 356.573 76.7813 354.677 78.6771C352.781 80.5729 351.833 82.875 351.833 85.5833C351.833 88.2917 352.781 90.5938 354.677 92.4896C356.573 94.3854 358.875 95.3333 361.583 95.3333Z" fill="#E6E0E9"/>
<path d="M105.716 77.6364H108.54L114.188 87.142H114.426L120.074 77.6364H122.898L115.54 89.608V98H113.074V89.608L105.716 77.6364ZM142.312 87.8182C142.312 89.9659 141.924 91.822 141.148 93.3864C140.373 94.9508 139.309 96.1572 137.957 97.0057C136.604 97.8542 135.06 98.2784 133.323 98.2784C131.586 98.2784 130.042 97.8542 128.69 97.0057C127.337 96.1572 126.273 94.9508 125.498 93.3864C124.722 91.822 124.335 89.9659 124.335 87.8182C124.335 85.6705 124.722 83.8144 125.498 82.25C126.273 80.6856 127.337 79.4792 128.69 78.6307C130.042 77.7822 131.586 77.358 133.323 77.358C135.06 77.358 136.604 77.7822 137.957 78.6307C139.309 79.4792 140.373 80.6856 141.148 82.25C141.924 83.8144 142.312 85.6705 142.312 87.8182ZM139.925 87.8182C139.925 86.0549 139.63 84.5668 139.04 83.3537C138.457 82.1406 137.665 81.2225 136.664 80.5994C135.67 79.9763 134.556 79.6648 133.323 79.6648C132.09 79.6648 130.973 79.9763 129.972 80.5994C128.978 81.2225 128.186 82.1406 127.596 83.3537C127.013 84.5668 126.721 86.0549 126.721 87.8182C126.721 89.5814 127.013 91.0696 127.596 92.2827C128.186 93.4957 128.978 94.4138 129.972 95.0369C130.973 95.66 132.09 95.9716 133.323 95.9716C134.556 95.9716 135.67 95.66 136.664 95.0369C137.665 94.4138 138.457 93.4957 139.04 92.2827C139.63 91.0696 139.925 89.5814 139.925 87.8182ZM159.822 77.6364H162.288V91.1193C162.288 92.5114 161.96 93.7543 161.303 94.848C160.654 95.9351 159.736 96.7936 158.549 97.4233C157.362 98.0464 155.97 98.358 154.373 98.358C152.775 98.358 151.383 98.0464 150.197 97.4233C149.01 96.7936 148.089 95.9351 147.433 94.848C146.783 93.7543 146.458 92.5114 146.458 91.1193V77.6364H148.924V90.9205C148.924 91.9148 149.143 92.7997 149.58 93.5753C150.018 94.3442 150.641 94.9508 151.45 95.3949C152.265 95.8324 153.239 96.0511 154.373 96.0511C155.506 96.0511 156.481 95.8324 157.296 95.3949C158.112 94.9508 158.735 94.3442 159.165 93.5753C159.603 92.7997 159.822 91.9148 159.822 90.9205V77.6364ZM167.212 98V77.6364H174.093C175.684 77.6364 176.989 77.9081 178.01 78.4517C179.031 78.9886 179.787 79.7277 180.277 80.669C180.768 81.6103 181.013 82.6809 181.013 83.8807C181.013 85.0805 180.768 86.1444 180.277 87.0724C179.787 88.0005 179.034 88.7296 178.02 89.2599C177.006 89.7836 175.71 90.0455 174.132 90.0455H168.564V87.8182H174.053C175.14 87.8182 176.015 87.6591 176.678 87.3409C177.347 87.0227 177.831 86.572 178.13 85.9886C178.435 85.3987 178.587 84.696 178.587 83.8807C178.587 83.0653 178.435 82.3527 178.13 81.7429C177.825 81.133 177.337 80.6624 176.668 80.331C175.998 79.9929 175.114 79.8239 174.013 79.8239H169.678V98H167.212ZM176.797 88.8523L181.809 98H178.945L174.013 88.8523H176.797ZM196.696 98L191.128 77.6364H193.634L197.889 94.2216H198.088L202.423 77.6364H205.207L209.543 94.2216H209.741L213.997 77.6364H216.503L210.935 98H208.389L203.895 81.7727H203.736L199.241 98H196.696ZM219.575 98V77.6364H231.865V79.8239H222.041V86.7045H231.229V88.892H222.041V95.8125H232.024V98H219.575ZM236.31 98V77.6364H243.429C244.848 77.6364 246.018 77.8816 246.939 78.3722C247.86 78.8561 248.546 79.509 248.997 80.331C249.448 81.1463 249.673 82.0511 249.673 83.0455C249.673 83.9205 249.518 84.643 249.206 85.2131C248.901 85.7831 248.497 86.2339 247.993 86.5653C247.496 86.8968 246.955 87.142 246.372 87.3011V87.5C246.995 87.5398 247.622 87.7585 248.251 88.1562C248.881 88.554 249.408 89.1241 249.832 89.8665C250.257 90.6089 250.469 91.517 250.469 92.5909C250.469 93.6117 250.237 94.5298 249.773 95.3452C249.309 96.1605 248.576 96.8068 247.575 97.2841C246.574 97.7614 245.272 98 243.668 98H236.31ZM238.776 95.8125H243.668C245.278 95.8125 246.422 95.5009 247.098 94.8778C247.781 94.2481 248.122 93.4858 248.122 92.5909C248.122 91.9015 247.946 91.2652 247.595 90.6818C247.244 90.0919 246.743 89.6212 246.094 89.2699C245.444 88.9119 244.675 88.733 243.787 88.733H238.776V95.8125ZM238.776 86.5852H243.349C244.092 86.5852 244.761 86.4394 245.358 86.1477C245.961 85.8561 246.438 85.4451 246.79 84.9148C247.148 84.3845 247.327 83.7614 247.327 83.0455C247.327 82.1506 247.015 81.3916 246.392 80.7685C245.769 80.1387 244.781 79.8239 243.429 79.8239H238.776V86.5852ZM265.657 82.7273C265.538 81.7197 265.054 80.9375 264.205 80.3807C263.357 79.8239 262.316 79.5455 261.083 79.5455C260.182 79.5455 259.393 79.6913 258.717 79.983C258.047 80.2746 257.523 80.6757 257.146 81.1861C256.774 81.6965 256.589 82.2765 256.589 82.9261C256.589 83.4697 256.718 83.937 256.977 84.3281C257.242 84.7126 257.58 85.0341 257.991 85.2926C258.402 85.5445 258.833 85.7533 259.283 85.919C259.734 86.0781 260.148 86.2074 260.526 86.3068L262.594 86.8636C263.125 87.0028 263.715 87.1951 264.364 87.4403C265.021 87.6856 265.647 88.0204 266.244 88.4446C266.847 88.8622 267.344 89.3991 267.735 90.0554C268.126 90.7116 268.322 91.517 268.322 92.4716C268.322 93.572 268.033 94.5663 267.457 95.4545C266.887 96.3428 266.051 97.0488 264.951 97.5724C263.857 98.0961 262.528 98.358 260.964 98.358C259.505 98.358 258.243 98.1226 257.175 97.652C256.115 97.1813 255.28 96.5251 254.67 95.6832C254.067 94.8414 253.725 93.8636 253.646 92.75H256.191C256.257 93.5189 256.516 94.1553 256.967 94.6591C257.424 95.1562 258.001 95.5275 258.697 95.7727C259.399 96.0114 260.155 96.1307 260.964 96.1307C261.905 96.1307 262.75 95.9782 263.499 95.6733C264.248 95.3617 264.842 94.9309 265.279 94.3807C265.717 93.8239 265.935 93.1742 265.935 92.4318C265.935 91.7557 265.746 91.2055 265.369 90.7812C264.991 90.357 264.494 90.0123 263.877 89.7472C263.261 89.482 262.594 89.25 261.879 89.0511L259.373 88.3352C257.782 87.8778 256.522 87.2249 255.594 86.3764C254.666 85.5279 254.202 84.4176 254.202 83.0455C254.202 81.9053 254.511 80.911 255.127 80.0625C255.75 79.2074 256.585 78.5445 257.633 78.0739C258.687 77.5966 259.863 77.358 261.163 77.358C262.475 77.358 263.642 77.5933 264.663 78.0639C265.683 78.5279 266.492 79.1643 267.089 79.973C267.692 80.7817 268.01 81.6998 268.043 82.7273H265.657ZM274.842 77.6364V98H272.376V77.6364H274.842ZM278.673 79.8239V77.6364H293.945V79.8239H287.542V98H285.076V79.8239H278.673ZM297.751 98V77.6364H310.041V79.8239H300.217V86.7045H309.404V88.892H300.217V95.8125H310.2V98H297.751Z" fill="white"/>
<rect x="215" y="576" width="158" height="251" rx="20" fill="#A1ADA0"/>
<circle cx="366" cy="581" r="13" fill="white"/>
<path d="M361.4 589L360 587.6L365.6 582L360 576.4L361.4 575L367 580.6L372.6 575L374 576.4L368.4 582L374 587.6L372.6 589L367 583.4L361.4 589Z" fill="#1D1B20"/>
<path d="M283.667 718.708V684.292L310.708 701.5L283.667 718.708Z" fill="#1D1B20"/>
</svg>
