<svg width="414" height="882" viewBox="0 0 414 882" fill="none" xmlns="http://www.w3.org/2000/svg">
<rect width="414" height="882" fill="#1E1E1E"/>
<rect width="414" height="882" fill="#D9D9D9"/>
<rect width="414" height="143" fill="#092806"/>
<rect y="91" width="414" height="45" fill="#092806"/>
<path d="M38 65.5H77" stroke="white" stroke-width="5"/>
<line x1="38" y1="96.5" x2="77" y2="96.5" stroke="white" stroke-width="5"/>
<line x1="38" y1="81.5" x2="77" y2="81.5" stroke="white" stroke-width="5"/>
<path d="M387.467 103.5L373.817 89.85C372.733 90.7167 371.488 91.4028 370.079 91.9083C368.671 92.4139 367.172 92.6667 365.583 92.6667C361.647 92.6667 358.316 91.3035 355.59 88.5771C352.863 85.8507 351.5 82.5194 351.5 78.5833C351.5 74.6472 352.863 71.316 355.59 68.5896C358.316 65.8632 361.647 64.5 365.583 64.5C369.519 64.5 372.851 65.8632 375.577 68.5896C378.303 71.316 379.667 74.6472 379.667 78.5833C379.667 80.1722 379.414 81.6708 378.908 83.0792C378.403 84.4875 377.717 85.7333 376.85 86.8167L390.5 100.467L387.467 103.5ZM365.583 88.3333C368.292 88.3333 370.594 87.3854 372.49 85.4896C374.385 83.5938 375.333 81.2917 375.333 78.5833C375.333 75.875 374.385 73.5729 372.49 71.6771C370.594 69.7813 368.292 68.8333 365.583 68.8333C362.875 68.8333 360.573 69.7813 358.677 71.6771C356.781 73.5729 355.833 75.875 355.833 78.5833C355.833 81.2917 356.781 83.5938 358.677 85.4896C360.573 87.3854 362.875 88.3333 365.583 88.3333Z" fill="#E6E0E9"/>
<path d="M109.716 70.6364H112.54L118.188 80.142H118.426L124.074 70.6364H126.898L119.54 82.608V91H117.074V82.608L109.716 70.6364ZM146.312 80.8182C146.312 82.9659 145.924 84.822 145.148 86.3864C144.373 87.9508 143.309 89.1572 141.957 90.0057C140.604 90.8542 139.06 91.2784 137.323 91.2784C135.586 91.2784 134.042 90.8542 132.69 90.0057C131.337 89.1572 130.273 87.9508 129.498 86.3864C128.722 84.822 128.335 82.9659 128.335 80.8182C128.335 78.6705 128.722 76.8144 129.498 75.25C130.273 73.6856 131.337 72.4792 132.69 71.6307C134.042 70.7822 135.586 70.358 137.323 70.358C139.06 70.358 140.604 70.7822 141.957 71.6307C143.309 72.4792 144.373 73.6856 145.148 75.25C145.924 76.8144 146.312 78.6705 146.312 80.8182ZM143.925 80.8182C143.925 79.0549 143.63 77.5668 143.04 76.3537C142.457 75.1406 141.665 74.2225 140.664 73.5994C139.67 72.9763 138.556 72.6648 137.323 72.6648C136.09 72.6648 134.973 72.9763 133.972 73.5994C132.978 74.2225 132.186 75.1406 131.596 76.3537C131.013 77.5668 130.721 79.0549 130.721 80.8182C130.721 82.5814 131.013 84.0696 131.596 85.2827C132.186 86.4957 132.978 87.4138 133.972 88.0369C134.973 88.66 136.09 88.9716 137.323 88.9716C138.556 88.9716 139.67 88.66 140.664 88.0369C141.665 87.4138 142.457 86.4957 143.04 85.2827C143.63 84.0696 143.925 82.5814 143.925 80.8182ZM163.822 70.6364H166.288V84.1193C166.288 85.5114 165.96 86.7543 165.303 87.848C164.654 88.9351 163.736 89.7936 162.549 90.4233C161.362 91.0464 159.97 91.358 158.373 91.358C156.775 91.358 155.383 91.0464 154.197 90.4233C153.01 89.7936 152.089 88.9351 151.433 87.848C150.783 86.7543 150.458 85.5114 150.458 84.1193V70.6364H152.924V83.9205C152.924 84.9148 153.143 85.7997 153.58 86.5753C154.018 87.3442 154.641 87.9508 155.45 88.3949C156.265 88.8324 157.239 89.0511 158.373 89.0511C159.506 89.0511 160.481 88.8324 161.296 88.3949C162.112 87.9508 162.735 87.3442 163.165 86.5753C163.603 85.7997 163.822 84.9148 163.822 83.9205V70.6364ZM171.212 91V70.6364H178.093C179.684 70.6364 180.989 70.9081 182.01 71.4517C183.031 71.9886 183.787 72.7277 184.277 73.669C184.768 74.6103 185.013 75.6809 185.013 76.8807C185.013 78.0805 184.768 79.1444 184.277 80.0724C183.787 81.0005 183.034 81.7296 182.02 82.2599C181.006 82.7836 179.71 83.0455 178.132 83.0455H172.564V80.8182H178.053C179.14 80.8182 180.015 80.6591 180.678 80.3409C181.347 80.0227 181.831 79.572 182.13 78.9886C182.435 78.3987 182.587 77.696 182.587 76.8807C182.587 76.0653 182.435 75.3527 182.13 74.7429C181.825 74.133 181.337 73.6624 180.668 73.331C179.998 72.9929 179.114 72.8239 178.013 72.8239H173.678V91H171.212ZM180.797 81.8523L185.809 91H182.945L178.013 81.8523H180.797ZM200.696 91L195.128 70.6364H197.634L201.889 87.2216H202.088L206.423 70.6364H209.207L213.543 87.2216H213.741L217.997 70.6364H220.503L214.935 91H212.389L207.895 74.7727H207.736L203.241 91H200.696ZM223.575 91V70.6364H235.865V72.8239H226.041V79.7045H235.229V81.892H226.041V88.8125H236.024V91H223.575ZM240.31 91V70.6364H247.429C248.848 70.6364 250.018 70.8816 250.939 71.3722C251.86 71.8561 252.546 72.509 252.997 73.331C253.448 74.1463 253.673 75.0511 253.673 76.0455C253.673 76.9205 253.518 77.643 253.206 78.2131C252.901 78.7831 252.497 79.2339 251.993 79.5653C251.496 79.8968 250.955 80.142 250.372 80.3011V80.5C250.995 80.5398 251.622 80.7585 252.251 81.1562C252.881 81.554 253.408 82.1241 253.832 82.8665C254.257 83.6089 254.469 84.517 254.469 85.5909C254.469 86.6117 254.237 87.5298 253.773 88.3452C253.309 89.1605 252.576 89.8068 251.575 90.2841C250.574 90.7614 249.272 91 247.668 91H240.31ZM242.776 88.8125H247.668C249.278 88.8125 250.422 88.5009 251.098 87.8778C251.781 87.2481 252.122 86.4858 252.122 85.5909C252.122 84.9015 251.946 84.2652 251.595 83.6818C251.244 83.0919 250.743 82.6212 250.094 82.2699C249.444 81.9119 248.675 81.733 247.787 81.733H242.776V88.8125ZM242.776 79.5852H247.349C248.092 79.5852 248.761 79.4394 249.358 79.1477C249.961 78.8561 250.438 78.4451 250.79 77.9148C251.148 77.3845 251.327 76.7614 251.327 76.0455C251.327 75.1506 251.015 74.3916 250.392 73.7685C249.769 73.1387 248.781 72.8239 247.429 72.8239H242.776V79.5852ZM269.657 75.7273C269.538 74.7197 269.054 73.9375 268.205 73.3807C267.357 72.8239 266.316 72.5455 265.083 72.5455C264.182 72.5455 263.393 72.6913 262.717 72.983C262.047 73.2746 261.523 73.6757 261.146 74.1861C260.774 74.6965 260.589 75.2765 260.589 75.9261C260.589 76.4697 260.718 76.937 260.977 77.3281C261.242 77.7126 261.58 78.0341 261.991 78.2926C262.402 78.5445 262.833 78.7533 263.283 78.919C263.734 79.0781 264.148 79.2074 264.526 79.3068L266.594 79.8636C267.125 80.0028 267.715 80.1951 268.364 80.4403C269.021 80.6856 269.647 81.0204 270.244 81.4446C270.847 81.8622 271.344 82.3991 271.735 83.0554C272.126 83.7116 272.322 84.517 272.322 85.4716C272.322 86.572 272.033 87.5663 271.457 88.4545C270.887 89.3428 270.051 90.0488 268.951 90.5724C267.857 91.0961 266.528 91.358 264.964 91.358C263.505 91.358 262.243 91.1226 261.175 90.652C260.115 90.1813 259.28 89.5251 258.67 88.6832C258.067 87.8414 257.725 86.8636 257.646 85.75H260.191C260.257 86.5189 260.516 87.1553 260.967 87.6591C261.424 88.1562 262.001 88.5275 262.697 88.7727C263.399 89.0114 264.155 89.1307 264.964 89.1307C265.905 89.1307 266.75 88.9782 267.499 88.6733C268.248 88.3617 268.842 87.9309 269.279 87.3807C269.717 86.8239 269.935 86.1742 269.935 85.4318C269.935 84.7557 269.746 84.2055 269.369 83.7812C268.991 83.357 268.494 83.0123 267.877 82.7472C267.261 82.482 266.594 82.25 265.879 82.0511L263.373 81.3352C261.782 80.8778 260.522 80.2249 259.594 79.3764C258.666 78.5279 258.202 77.4176 258.202 76.0455C258.202 74.9053 258.511 73.911 259.127 73.0625C259.75 72.2074 260.585 71.5445 261.633 71.0739C262.687 70.5966 263.863 70.358 265.163 70.358C266.475 70.358 267.642 70.5933 268.663 71.0639C269.683 71.5279 270.492 72.1643 271.089 72.973C271.692 73.7817 272.01 74.6998 272.043 75.7273H269.657ZM278.842 70.6364V91H276.376V70.6364H278.842ZM282.673 72.8239V70.6364H297.945V72.8239H291.542V91H289.076V72.8239H282.673ZM301.751 91V70.6364H314.041V72.8239H304.217V79.7045H313.404V81.892H304.217V88.8125H314.2V91H301.751Z" fill="white"/>
<line y1="291" x2="414.005" y2="291" stroke="#092806" stroke-width="2"/>
<circle cx="52.5" cy="225.5" r="39.5" fill="#F6F6F6"/>
<circle cx="152.5" cy="225.5" r="39.5" fill="#F6F6F6"/>
<circle cx="254.5" cy="225.5" r="39.5" fill="#F6F6F6"/>
<circle cx="357.5" cy="225.5" r="39.5" fill="#F6F6F6"/>
<circle cx="52.5" cy="225.5" r="44.5" stroke="black" stroke-width="2"/>
<circle cx="152.5" cy="225.5" r="44.5" stroke="black" stroke-width="2"/>
<circle cx="254.5" cy="225.5" r="44.5" stroke="black" stroke-width="2"/>
<circle cx="357.5" cy="225.5" r="44.5" stroke="black" stroke-width="2"/>
</svg>
